<?xml version="1.0" encoding="UTF-8"?>
<svg id="Layer_1" xmlns="http://www.w3.org/2000/svg" version="1.1" viewBox="0 0 800 800">
  <!-- Generator: Adobe Illustrator 29.1.0, SVG Export Plug-In . SVG Version: 2.1.0 Build 142)  -->
  <path d="M377.09,267.88l8.09,39.86c.44.55,2.51.32,2.69-.26.5-2.07.35-8.13,1.71-9.52.66-.68,4.11-2.37,5.18-2.93,1.23-.65,5.86-3.16,6.92-2.98.45.08,2.24,1.09,2.79,1.39,2.21,1.17,4.36,2.62,6.53,3.88l.42,1.45-.33,7.41c.17.89,1.73,1.42,2.54,1.83.44.22,3.47,1.63,3.61,1.48l.22-6.54c.05-.31.22-.84.54-.93.78-.22,8.36,2.75,9.76,3.09l.29.54c.24,2.06.06,4.18.22,6.23.06.73.29,2.6.51,3.24.4,1.18,2.59,2.21,3.8,1.71,1-.41,3.89-5.15,4.31-6.3,2.29-9.92,3.64-20.28,6.04-30.16.49-2.04,1.18-5.73,2.33-1.28,3.73,14.43,5.08,30.13,8.81,44.65.11,3.75-.08,7.51-.22,11.23-.13,3.34.84,5-1.86,7.5-1.93,1.79-6.64,4.8-7.91,6.65-.71,1.04-.98,4.45-1.05,5.82-.5,9.83.02,21.57.62,31.43.22,3.62.92,11.44,2.2,14.65.27.67.56,1.18,1.27,1.44,4.5,1.64,8.77,3.92,13.19,5.74.4.16,2.26.97,2.49.73.3-2.21-2.84-2.99-2.69-5.07,1.94-6.96,3.74-13.96,5.46-20.97,1.97-8.02,3.49-16.92,5.86-24.72.36-1.19.67-1.78,1.3-.25,1.57,7.15,2.95,14.33,4.53,21.48.78,3.54,1.83,10.69,3.19,13.66.26.56.43.78.89,1.19,2.2,1.96,6.62,3.68,9.25,5.52.53.37,1.87,1.18,1.93,1.81.12,1.33-5.29,4.28-5.34,5.78,1.61,10.92,2.72,21.93,4.37,32.85.43,2.84.7,6.96,2.02,9.43,1.4,2.64,4.37,5.05,7.32,5.69.89.15,1.15.22,1.65.29.37.05.62.11,1.12.15.46.06.59,0,1.17.32.44.23.43,1.21.43,1.56,0,.78,0,1.09,0,2.26v4.06s-.48.52-.52.52h-209.09c-.27,0-.86-.59-.93-.94-.18-.94-.13-5.18,0-6.24.22-1.95,1.74-1.33,3-1.58,3.16-.62,8.45-4.07,9.39-7.26,2.01-17.47,3.71-34.97,5.36-52.47l12.45-49.23c1.11-.29,1.13.8,1.38,1.6,2.03,6.42,3.27,14.03,4.91,20.68,1.99,8.11,4.05,16.22,6.18,24.29.32.09.35-.1.52-.21,4.5-2.79,10.76-7.83,14.97-11.24.97-.78,3.67-2.98,4.08-4.03,1.01-2.58.62-8.89.62-11.88,0-.54-.22-1.05-.23-1.65-.02-3.97.55-8.54-.04-12.44-.22-1.45-2.17-3.27-3.27-4.22-1.56-1.34-6.82-4.25-7.39-5.71-.35-.89-.48-3.59-.52-4.68-.21-4.61-.11-9.31-.18-13.92,3.18-9.39,4.39-20.15,7.36-29.46.19-.58.63-2.56,1.46-1.66,1.62,4.42,2.85,9,4.47,13.42,1.03,2.82,2.66,7.55,4.12,10.02.9,1.52,1.99,1.26,3.04.05,3.26-15.94,5.84-32.02,9.69-47.83h1.04ZM337.35,403.31c1.76-.31,5.58.19,7.06-.32,1.22-.41,6.45-3.99,7.94-4.96,3.86-2.49,14.26-9.03,16.37-12.55,2.54-4.22,1.14-13.11,1.07-18.05-.6-5.98.86-13.75-.04-19.51-.16-1.03-1.1-2.83-1.81-3.59l-9.67-7.8c-.21-.36-.45-.73-.52-1.15-.1-.61-.28-2.74-.23-3.32.1-1.09.67-1.21,1.56-1.57,5.51-2.2,11.49-3.22,17.08-5.18l-.95-23.51-.41,2.39c-.63,5.21-.34,11.52-1.52,16.58-.31,1.33-.46,1.35-1.7,1.83-3.49,1.37-8.18,2.64-11.9,3.08-.81.1-2.94.55-3.39-.09-.72-1.03-.68-5.12-1.06-6.54-.31.04-.34.9-.39,1.17-.37,2.33-.37,4.7-.66,7.04l.05,10.37c.18.62,6.47,5,7.56,5.97,1.46,1.3,3.05,2.7,3.41,4.71.99,5.64.2,12.75.01,18.48-.18,5.58.75,11.91-2.53,16.82-2,3-6.53,6.02-9.47,8.22-5.23,3.91-10.75,7.44-15.88,11.48ZM398.52,302.63c-.15-.17-.97.49-1.12.64-1.71,1.8-.92,7.51-2.2,9.86l-9.57,5.09,13.11-1.04-.21-14.56ZM391.03,355.88l-4.06-.82-2.39-14.78-2.69,14.88-3.95.7-2.3-11.22-2.29,13.92c6.97,2.4,10.08,8.92,11.03,15.82l1.71-6.29c1.34-3.54,3.44-6.14,6.63-8.14.51-.32,2.53-1.13,2.66-1.51l-2.26-13.8-2.08,11.23ZM428.05,355.87c-.2.19-3.88-.52-4.11-.96l-2.33-14.63-2.7,14.88-3.95.72c-.71-3.48-1.06-7.27-1.88-10.71-.08-.32.14-.36-.41-.31l-2.28,13.71c6.93,2.4,10.01,8.76,11.02,15.62l1.92-6.5c1.37-3.42,3.31-5.77,6.42-7.73.51-.32,2.53-1.13,2.66-1.51l-2.26-13.8-2.09,11.22ZM320.92,456.56c.04-.93-.06-1.88,0-2.81,1.22-20.02,2.13-40.42,1.46-60.55-.04-1.34-.32-2.87-.32-4.26-.84,8.22-1.95,16.43-2.81,24.65-1.15,11.04-1.52,23.27-3.36,34.08-.62,3.64-1.91,6.79-4.33,9.6l9.36-.73Z"/>
  <g>
    <path d="M277.1,515.78c-2.17-.91-2.48-2.16-2.62-4.39-.55-8.71.29-18.17.18-26.92.2-.98.47-1.96,1.31-2.58.89-.66,1.98-.61,2.88-1.17v-2.8l-17.47.16v2.65c1.39.67,2.92.89,3.59,2.49.15.37.46,1.53.46,1.87v29.89c-.14.22-.31.21-.54.24-2.34.27-9.09.15-11.35-.36-1.4-.32-2.52-1.08-2.97-2.48-.81-2.51-.44-8.41.55-10.9.87-2.19,2.78-3.46,5.11-3.7.05-.41,0-.25-.23-.31-1.6-.48-3.16-.91-4.21-2.34-1.79-2.44-2.09-8.79-1.19-11.59.6-1.87,2.33-2.09,3.83-2.87l-.08-2.81h-17.16l-.08,2.8c1.41.78,3.27,1.05,3.87,2.83.82,2.43-.19,9.24-1.52,11.49-.84,1.43-2.88,2.24-4.45,2.49-.05.38,0,.25.22.33.81.3,1.63.39,2.42.85,3.45,2,3.88,9.84,3.6,13.38-.24,2.99-1.67,3.28-4.14,4.27-.17.28-.12,2.8.1,2.94l8.16-.14c8.74.55,18.35-.71,26.99,0,2.5.21,5.14,1.51,4.75,4.42-.36,2.63-3.7,2.38-5.6,2.04-4.13-.75-8.13-3-12.42-3.33-5.87-.45-11.32,2.43-11.61,8.75.04.15,2.04.77,2.27.42.1-.15.28-1.29.46-1.72,1.01-2.3,3.43-1.53,5.38-1.01,5.23,1.38,9.91,4.46,15.64,3.46,5.1-.89,8.86-5.4,9.3-10.49.08-.97.15-3.8-.17-4.61-.25-.62-2.49-.91-3.28-1.24Z"/>
    <path d="M323.16,508.26c-.2-5.85.04-11.71,0-17.59-.02-2.1-.38-4.25,0-6.36.42-2.3,2.14-2.87,4.18-3.38l-.15-3.23-7.54.3-9.73-.14c-.03.12-.17.28-.18.36-.12.73.09,1.73,0,2.49,1.43.86,4.09.93,3.99,3.19l-15.49,22.53-.36.2c.16-2.42-.03-4.8,0-7.24.02-2.21.14-4.49.17-6.68.03-2.28-.41-8.09.58-9.85.89-1.57,3.47-1.61,3.7-2.07.16-.32.13-2.59-.06-2.87l-17.49-.09-.08,2.96c.82.46,1.75.52,2.58,1,1.31.77,1.61,1.99,1.72,3.42-.54,8.62.7,18.1,0,26.62-.15,1.73-.64,2.93-2.28,3.64-.5.22-1.69.41-1.91.74-.35.5.11,2.18.05,2.88l17.56.15c-.17-.74.31-2.56-.08-3.11-.15-.21-1.35-.43-1.74-.6-1.24-.53-2.57-1.53-1.89-3.03l15.41-22.21-.17,22.79c-.37,2.15-2.39,2.44-4.13,3.04l.08,3.12h17.47v-3.04c-.76-.49-1.67-.48-2.49-.94-2.34-1.32-1.64-4.72-1.72-7Z"/>
    <path d="M447.87,515.19c-4.52-.43-3.38-3.87-3.83-7.23.49-7.44-.64-15.68.03-23.02.26-2.86,1.4-3.38,4.04-3.99v-3.04l-32.29-.08v3.04c1.45.61,3.41.48,4.44,1.96.85,1.22.77,3.59.71,5.05-.26,6.6-1.74,14.41-4.49,20.42-1.41,3.08-3.74,7.36-7.73,6.92l-.23.23.91,13.91,3.65.13c.38-.13,1.39-4.43,1.66-5.2.87-2.51,1.74-5,4.75-5.22,6.61-.47,13.78.37,20.45,0,2.61.23,3.55,2.94,4.29,5.06.31.91,1.18,4.74,1.55,5.15.51.58,2.96,0,3.75.07l1.07-13.75c-.21-.65-2.11-.36-2.71-.42ZM435,514.88h-16.07c.85-1.81,1.87-3.54,2.62-5.41,3.36-8.38,3.87-17.94,4.25-26.89l.23-.39h8.97v32.69Z"/>
    <path d="M527.17,481.39l-.14-3.56h-30.11s0,3.03,0,3.03c.76.47,2.87,1.6,3.29,2.33.47.81.36,5.65.31,6.86-.05,1.22-.21,2.63-.34,3.87-.55,5.42-1.76,10.77-2.94,16.06-.98.91-2.17.9-3.41.58-1.32-.34-3.13-1.95-3.85-.04-.52,1.38-.61,4.94-.36,6.42.73,4.28,8.09,3.01,10.24.48.31-.36,1.38-2.29,1.59-2.77.66-1.54,1.05-4.39,1.48-6.15,1.92-7.95,2.44-15.74,3.04-23.89.06-.77.18-1.65.31-2.41h7.8s.34,5.31.32,7.08c-.11,7.66.73,16.31,0,23.82-.21,2.2-1.5,1.89-3.12,2.8v3.19h15.6v-3.11c-2.31-.53-3.41-1.18-3.59-3.65-.24-3.2.06-6.86.01-10.13-.04-2.81-.07-4.77.01-7.76.06-1.98,0-3.44-.03-5.39-.01-1.67-.05-3.64.2-5.32.25-1.65,2.35-1.87,3.68-2.32Z"/>
    <path d="M483.04,507.64c-.16.1-1.09,2.56-1.34,3.02-1.6,2.98-3.91,4.42-7.31,4.69-3.21.25-6.59.07-6.94-3.81-.25-2.79.09-6.02,0-8.88-.02-.73-.48-1.76.07-2.41h3.28c.41,0,1.67.25,2.1.39,2.05.69,2.9,2.76,3.43,4.68l3.13-.24c-.23-4.58-.17-9.14.16-13.7h-3.28c-.52,1.77-1.01,3.71-2.8,4.6-.3.15-1.39.54-1.65.54h-4.6l.16-14.48h7.25c.47,0,2.05.51,2.52.75,2.25,1.16,3.29,3.74,3.82,6.08l3.55-.62-.76-10.73c-2.47.11-4.93.23-7.41.31-6.12.21-12.27.16-18.42.16l-3.46-.29-.35.2v2.8c2.07.9,3.73,1.15,4.04,3.75-.13,7.57.2,15.18.11,22.74-.02,1.57.1,5.49-.53,6.7-.71,1.35-2.37,1.58-3.62,2.15v3.19l30.7-.03c.39-1.69.41-3.45.67-5.16.22-1.4.97-3.9.93-5.16,0-.18,0-.35-.17-.47-.66-.14-2.78-1.09-3.28-.78Z"/>
    <path d="M402.06,513.27c-5.15-11.16-9.03-23.19-14.09-34.35-.31-.69-.52-1.73-1.39-1.72-.73,0-3.62.6-3.96,1.19l-13.61,34.36c-.82,1.72-2.23,2.75-3.88,3.6v2.88h12.17v-3.11c-5.33-1.04-2.82-5.65-1.53-9l13.63-.03c.22,0,.26.11.36.26.4.62,1.12,2.78,1.39,3.59.75,2.19,1.44,3.53-1.1,4.74-.42.2-.91.09-1.17.55-.17.3-.02,2.87.15,2.98l16.98-.13v-2.8c-1.63-.5-3.14-1.44-3.93-3.01ZM377.13,503.36l5.46-15.1,5.46,15.1h-10.92Z"/>
    <path d="M562.66,499.33c-2-2.95-7.52-4.46-10.92-4.82-2.62-.56-5.77.29-8.25-.01-.17-.02-.35,0-.47-.15-.2-.28.1-1.07.1-1.49,0-.71-.17-1.6-.18-2.33-.03-1.68-.26-5.24.01-6.69.28-1.52,2.48-2.53,3.82-2.88.17-.62.49-2.6.01-2.97l-15.07-.14v3.04c.42.32.98.26,1.56.47.62.23,1.18.76,1.88.93l.31,2.02-.02,29.42c-.5,1.62-2.37,1.73-3.66,2.41l-.07,2.97c3.98.03,7.96-.03,11.94,0,4.62.03,9.59.61,14.03-1.08,3.39-1.29,6.8-5.96,7.09-9.58.24-2.95-.44-6.62-2.12-9.09ZM556.17,509.63c-.06.28-.85,2.46-.94,2.57-.11.13-.42.1-.54.24-.66.72-1.31,1.87-2.17,2.43-1.33.88-4.65,1.04-6.2.78-1.88-.31-3-.81-3.21-2.87-.37-3.69.13-8.17,0-11.99-.02-.71-.3-1.49-.16-2.25l3.66-.32c2.63-.07,4.64.4,6.75,1.99,3.16,2.39,3.62,5.65,2.81,9.42Z"/>
    <path d="M366.21,488.34c-.11-2.4-.58-4.77-.78-7.16-.06-.76.05-1.57,0-2.33-.03-.34-.14-1.53-.41-1.62-5.21.83-10.46.94-15.74.92-3.92-.01-8.62.09-12.48-.16-1.23-.08-4.05-.91-4.95-.76-.27.04-.56.23-.59.52.12,3.52-.42,7-.9,10.47.01.71,3.52,1.38,3.69,1.27.88-2.17,1.93-5.23,4.13-6.39.46-.24,2.4-.91,2.83-.91h2.73c.02,6.56-.02,13.13,0,19.7,0,2.13.07,4.22,0,6.37-.1,2.8.79,5.97-2.49,7.16-.53.19-2.43.47-2.66.77-.46.58.12,2.32.01,3.05l19.66-.23v-2.88c-1.54-.46-3.92-.6-4.77-2.17-.71-1.31-.45-2.71-.7-4.13v-27.64h3.36c1.87,0,3.82,1.72,4.68,3.27.58,1.03,1.06,3.04,1.65,3.8.4.51,2.95-.24,3.47-.55.16-.1.26-.15.26-.36Z"/>
  </g>
</svg>