<?xml version="1.0" encoding="UTF-8"?>
<svg id="Layer_1" xmlns="http://www.w3.org/2000/svg" version="1.1" viewBox="0 0 800 800">
  <!-- Generator: Adobe Illustrator 29.1.0, SVG Export Plug-In . SVG Version: 2.1.0 Build 142)  -->
  <path d="M377.17,266.83l8.09,39.86c.44.55,2.51.32,2.69-.26.5-2.07.35-8.13,1.71-9.52.66-.68,4.11-2.37,5.18-2.93,1.23-.65,5.86-3.16,6.92-2.98.45.08,2.24,1.09,2.79,1.39,2.21,1.17,4.36,2.62,6.53,3.88l.42,1.45-.33,7.41c.17.89,1.73,1.42,2.54,1.83.44.22,3.47,1.63,3.61,1.48l.22-6.54c.05-.31.22-.84.54-.93.78-.22,8.36,2.75,9.76,3.09l.29.54c.24,2.06.06,4.18.22,6.23.06.73.29,2.6.51,3.24.4,1.18,2.59,2.21,3.8,1.71,1-.41,3.89-5.15,4.31-6.3,2.29-9.92,3.64-20.28,6.04-30.16.49-2.04,1.18-5.73,2.33-1.28,3.73,14.43,5.08,30.13,8.81,44.65.11,3.75-.08,7.51-.22,11.23-.13,3.34.84,5-1.86,7.5-1.93,1.79-6.64,4.8-7.91,6.65-.71,1.04-.98,4.45-1.05,5.82-.5,9.83.02,21.57.62,31.43.22,3.62.92,11.44,2.2,14.65.27.67.56,1.18,1.27,1.44,4.5,1.64,8.77,3.92,13.19,5.74.4.16,2.26.97,2.49.73.3-2.21-2.84-2.99-2.69-5.07,1.94-6.96,3.74-13.96,5.46-20.97,1.97-8.02,3.49-16.92,5.86-24.72.36-1.19.67-1.78,1.3-.25,1.57,7.15,2.95,14.33,4.53,21.48.78,3.54,1.83,10.69,3.19,13.66.26.56.43.78.89,1.19,2.2,1.96,6.62,3.68,9.25,5.52.53.37,1.87,1.18,1.93,1.81.12,1.33-5.29,4.28-5.34,5.78,1.61,10.92,2.72,21.93,4.37,32.85.43,2.84.7,6.96,2.02,9.43,1.4,2.64,4.37,5.05,7.32,5.69.89.15,1.15.22,1.65.29.37.05.62.11,1.12.15.46.06.59,0,1.17.32.44.23.43,1.21.43,1.56,0,.78,0,1.09,0,2.26v4.06s-.48.52-.52.52h-209.09c-.27,0-.86-.59-.93-.94-.18-.94-.13-5.18,0-6.24.22-1.95,1.74-1.33,3-1.58,3.16-.62,8.45-4.07,9.39-7.26,2.01-17.47,3.71-34.97,5.36-52.47l12.45-49.23c1.11-.29,1.13.8,1.38,1.6,2.03,6.42,3.27,14.03,4.91,20.68,1.99,8.11,4.05,16.22,6.18,24.29.32.09.35-.1.52-.21,4.5-2.79,10.76-7.83,14.97-11.24.97-.78,3.67-2.98,4.08-4.03,1.01-2.58.62-8.89.62-11.88,0-.54-.22-1.05-.23-1.65-.02-3.97.55-8.54-.04-12.44-.22-1.45-2.17-3.27-3.27-4.22-1.56-1.34-6.82-4.25-7.39-5.71-.35-.89-.48-3.59-.52-4.68-.21-4.61-.11-9.31-.18-13.92,3.18-9.39,4.39-20.15,7.36-29.46.19-.58.63-2.56,1.46-1.66,1.62,4.42,2.85,9,4.47,13.42,1.03,2.82,2.66,7.55,4.12,10.02.9,1.52,1.99,1.26,3.04.05,3.26-15.94,5.84-32.02,9.69-47.83h1.04ZM337.44,402.25c1.76-.31,5.58.19,7.06-.32,1.22-.41,6.45-3.99,7.94-4.96,3.86-2.49,14.26-9.03,16.37-12.55,2.54-4.22,1.14-13.11,1.07-18.05-.6-5.98.86-13.75-.04-19.51-.16-1.03-1.1-2.83-1.81-3.59l-9.67-7.8c-.21-.36-.45-.73-.52-1.15-.1-.61-.28-2.74-.23-3.32.1-1.09.67-1.21,1.56-1.57,5.51-2.2,11.49-3.22,17.08-5.18l-.95-23.51-.41,2.39c-.63,5.21-.34,11.52-1.52,16.58-.31,1.33-.46,1.35-1.7,1.83-3.49,1.37-8.18,2.64-11.9,3.08-.81.1-2.94.55-3.39-.09-.72-1.03-.68-5.12-1.06-6.54-.31.04-.34.9-.39,1.17-.37,2.33-.37,4.7-.66,7.04l.05,10.37c.18.62,6.47,5,7.56,5.97,1.46,1.3,3.05,2.7,3.41,4.71.99,5.64.2,12.75.01,18.48-.18,5.58.75,11.91-2.53,16.82-2,3-6.53,6.02-9.47,8.22-5.23,3.91-10.75,7.44-15.88,11.48ZM398.6,301.57c-.15-.17-.97.49-1.12.64-1.71,1.8-.92,7.51-2.2,9.86l-9.57,5.09,13.11-1.04-.21-14.56ZM391.11,354.82l-4.06-.82-2.39-14.78-2.69,14.88-3.95.7-2.3-11.22-2.29,13.92c6.97,2.4,10.08,8.92,11.03,15.82l1.71-6.29c1.34-3.54,3.44-6.14,6.63-8.14.51-.32,2.53-1.13,2.66-1.51l-2.26-13.8-2.08,11.23ZM428.14,354.81c-.2.19-3.88-.52-4.11-.96l-2.33-14.63-2.7,14.88-3.95.72c-.71-3.48-1.06-7.27-1.88-10.71-.08-.32.14-.36-.41-.31l-2.28,13.71c6.93,2.4,10.01,8.76,11.02,15.62l1.92-6.5c1.37-3.42,3.31-5.77,6.42-7.73.51-.32,2.53-1.13,2.66-1.51l-2.26-13.8-2.09,11.22ZM321,455.51c.04-.93-.06-1.88,0-2.81,1.22-20.02,2.13-40.42,1.46-60.55-.04-1.34-.32-2.87-.32-4.26-.84,8.22-1.95,16.43-2.81,24.65-1.15,11.04-1.52,23.27-3.36,34.08-.62,3.64-1.91,6.79-4.33,9.6l9.36-.73Z"/>
  <g>
    <path d="M425.35,479.4c-1.72-.04-3.5-.19-5.23-.29l-.54.22c-.55.54-.3,2.91-.24,3.72,2.19.97,4.13.68,4.83,3.41.73,2.89.32,7.64.37,10.76.1,6.57.24,13.19.12,19.77-.05,2.56.29,7.14-1.76,8.85-.84.71-3.37,1.14-3.56,1.51-.18.37-.15,3.65.12,3.92.73.46,1.53.04,2.25.03,2.17-.04,4.36-.14,6.5-.16,8.78-.09,17.56,1.35,25.88-2.18,9.07-3.84,13.44-9.4,15.51-19.01,1.3-6.03,0-17.07-4.3-21.74-11.01-11.98-25.49-8.46-39.95-8.8ZM439.95,526.39c-2.97-.28-3.55-3.08-3.72-5.61-.7-10.65.21-21.73-.17-32.45.25-.92-.23-3.52.65-3.94.25-.12.88-.22,1.18-.24,5.17-.46,8.36-.25,12.54,2.91,4.86,3.68,6.43,9.59,6.88,15.52.91,11.88-2.7,25.17-17.36,23.81Z"/>
    <path d="M514.39,517.45c-.65-.29-2.59-1.15-3.17-.8-.65,1.2-1.02,2.53-1.63,3.75-2.51,5.04-7.11,6.52-12.57,6.14-4.94-.34-5.6-2.37-5.79-6.88-.13-3.15-.28-7.86,0-10.93.04-.41.05-.93.56-1.02.68-.12,2.24-.02,3.02,0,1.08.03,2.92.1,3.87.41.77.25,1.33.7,1.82,1.35.62.82,1.83,4.12,2.16,4.33.72.49,3.67.13,3.81-.93.38-2.91-.27-6.88-.17-9.98.01-.34.15-.64.16-.94.06-1.64.14-3.27.16-4.91-.19-.77-3.32-.68-3.8-.47-.51.22-.61,1.55-.83,2.17-1.77,4.83-6.33,3.57-10.48,3.92-.1-.02-.25-.32-.27-.4v-17.25c0-.66,1.76-.69,2.29-.72,4.39-.21,11.35-.23,13.65,4.27.77,1.5.81,3.05,1.51,4.51.47.36,3.43-.13,4-.42.71-.36.5-2.15.43-2.89-.2-1.92-.79-3.89-.92-5.88-.07-1.01.22-4.06-.11-4.64-.28-.49-1.64-.35-2.22-.33-10.15.36-20.13.64-30.29.49-.94-.01-4.6-.46-5,.06-.27.35-.42,3.15-.22,3.58.38.79,3.77.6,4.6,2.53.62,1.43.64,4.18.7,5.78.24,7.13-.05,14.65-.11,21.83-.03,3.09.75,9.56-1.07,12.09-.28.4-.77.78-1.2,1.02-.65.36-2.58.73-2.8,1.16-.33.62-.45,3.72.39,3.97,12.87-.52,25.8.17,38.7-.23.25-.11.3-.66.33-.94.1-1.03.05-2.11.18-3.14.36-2.88,1.36-5.66,1.72-8.55-.02-.68-.86-.85-1.41-1.1Z"/>
    <path d="M412.99,526.07c-1.54-1.39-5.01-10.02-6.06-12.46-4.94-11.47-9.49-23.13-14.51-34.57-.18-.38-.58-.59-.99-.59-.47,0-4.1.79-4.56.99-.3.13-.48.36-.63.64-5.79,12.79-10.1,26.24-15.67,39.11-.78,1.8-2.39,5.41-3.73,6.72-.53.52-2.2,1.29-2.44,1.68-.36.6-.81,3.74.37,3.71,4.35-.38,9.22.38,13.49,0,.28-.02.66-.03.87-.24.26-.27.22-2.92.04-3.37-.25-.59-1.59-.91-2.21-1.28-2.96-1.77-1.8-4.87-.81-7.5.31-.83.88-2.81,1.79-2.96,3.2-.11,6.41.08,9.59.1,1.24,0,7.15-.37,7.72.09.21.17,1.98,4.44,2.17,5.03.78,2.33,1.37,3.94-1.08,5.4-.67.4-1.49.53-2.01,1.16v3.32c.14.23.32.22.55.25,2.71.32,6.77-.01,9.68-.01,3.25,0,6.53-.08,9.84,0,.42.01,1.58.42,1.82-.11.22-.5.08-3.3-.24-3.67-.37-.43-2.2-.7-3.01-1.43ZM393.06,511.16c-.19.18-.58.18-.83.2-3.86.32-8.16-.26-12.06,0l-.68-.43,6.89-17.92c.27-.05.46.34.55.54.57,1.35.91,3.03,1.41,4.44,1.35,3.76,3.21,7.69,4.45,11.38.12.37.55,1.54.28,1.79Z"/>
    <path d="M288.17,519.63c-.08-.11.04-.28-.26-.18-1.23.93-2.28,2.05-3.54,2.96-7.54,5.43-18.22,5.22-23.17-3.4-1.52-2.65-3.62-8.19-2.1-11.05,1.34-2.52,4.15-2.7,6.5-3.63-2.26-.83-5.39-1.14-6.58-3.55-1.85-3.75,1.37-10.83,4.05-13.7,4.17-4.46,11.14-4.84,16.13-1.53,3.52,2.33,3.93,6.53,4.97,10.3l4.42-.62.17-12.73c-14.38-8.84-35.67-5.03-41.43,12.14-1.22,3.64-.39,6.68-4.5,8.49-1.25.55-2.62.64-3.86,1.21,2.35,1.03,4.74,1.02,6.4,3.26,1.05,1.41,1.38,5.01,1.95,6.91,2.24,7.37,7.67,13.85,15.02,16.5,8.87,3.19,19.92,1.74,26.17-5.7.29-.34,1.47-1.79,1.59-2.07.06-.14.09-.18.05-.35-.07-.27-1.71-2.83-2-3.24Z"/>
    <path d="M366.59,492.43c.11-.32.04-1.45.02-1.87-.09-2.06-.61-4.27-.79-6.33-.08-.95-.07-5.16-.33-5.53-.07-.1-.13-.19-.25-.22-2.43.15-4.83.62-7.26.77-8.95.57-20.6.6-29.5-.17-.89-.08-5.72-.94-6.04-.48.23,4.1-1.04,8.06-1.17,12.11-.02.53-.18,1.85.26,2.12.55.34,3.83.89,4.34.58,1.32-2.19,1.8-5.73,3.97-7.27,1.46-1.03,4.16-1.59,5.93-1.68.94-.05,2.3-.31,2.29.89v36.67c-.36,3.32-1.76,4.25-4.84,4.83-.52.1-1.42-.11-1.79.43-.3.44-.32,3.57.16,3.94l25.13-.07c.23-.84.47-3.25-.07-3.9-.62-.74-3.98-.02-5.47-1.82-1.61-1.96-1.29-4.12-1.38-6.38-.37-9.91-.43-20.74-.15-30.72.03-1.16.23-2.3.16-3.47.06-.42.51-.53.87-.56.48-.04,2.16.1,2.69.17,1.23.15,3.51.68,4.57,1.29,2.18,1.25,3.16,5.39,4.27,7.53.59.56,4.22-.39,4.37-.86Z"/>
    <path d="M558.24,516.42c-.53-.18-1.63-.7-2.08-.33-.22.18-1.22,3.39-1.51,4.03-2.4,5.13-8.13,6.93-13.51,6.25-3.39-.42-3.85-2.39-4.23-5.43.4-10.5-.51-21.36,0-31.82.11-2.21.49-4.4,2.82-5.26.69-.25,2.25-.28,2.42-1.06.15-.71,0-2.47,0-3.32,0-.28-.63-.38-.86-.41-2.87-.29-7.15.4-10.2.44-.55,0-1.12-.13-1.7-.12-3.1.03-6.21-.09-9.3.1-.21,1.21-.45,2.47-.22,3.71.9.63,2.05.63,3.04,1.08,1.88.86,2,2.37,2.27,4.23-.53,10.82.71,22.33,0,33.07-.14,2.19-.66,3.9-2.83,4.77-.66.27-2.23.42-2.49,1-.13.3-.16,2.98-.08,3.39.08.43.3.51.7.57,1.65.22,4.42.01,6.2,0,6.17-.05,12.4-.12,18.61-.11,3.94,0,8.78.49,12.62.12.3-.03.62,0,.78-.32.18-.36.16-2.86.24-3.56.37-3.21,1.28-6.07,2.07-9.18-.05-.88-2.01-1.55-2.79-1.82Z"/>
    <path d="M313.05,524.86c-1.38-2.62-.96-8.77-.99-11.84-.06-7.52-.52-16.45,0-23.88.14-1.96.54-3.88,2.43-4.85.65-.33,2.64-.69,2.85-1.12.23-.48.18-3.54-.21-3.83-.14-.1-.39-.18-.57-.19-1.28-.09-3.08.24-4.41.27-5.46.14-10.88.06-16.35-.17-.25,0-.51.09-.63.32-.06.13-.23,1.95-.24,2.29-.09,2.22.74,1.53,2.38,2.07,2.47.81,2.86,2.49,3.02,4.89.52,7.8.06,16.8,0,24.7-.03,3.06.57,9.1-.92,11.57-.91,1.52-4.31,1.95-4.31,2.34v3.72c2.73.28,5.57.16,8.33.16h13.46c.25-.04.46-.19.53-.43.14-.48.14-3.1-.12-3.46-1.64-.86-3.28-.67-4.26-2.55Z"/>
  </g>
</svg>